<?xml version="1.0" encoding="UTF-8" standalone="no"?>
<!DOCTYPE svg PUBLIC "-//W3C//DTD SVG 1.1//EN"
 "http://www.w3.org/Graphics/SVG/1.1/DTD/svg11.dtd">
<!-- Generated by graphviz version 2.40.1 (20161225.0304)
 -->
<!-- Title: ch01_bookstore_problem Pages: 1 -->
<svg width="296pt" height="608pt"
 viewBox="0.00 0.00 296.00 608.00" xmlns="http://www.w3.org/2000/svg" xmlns:xlink="http://www.w3.org/1999/xlink">
<g id="graph0" class="graph" transform="scale(1 1) rotate(0) translate(4 604)">
<title>ch01_bookstore_problem</title>
<g id="clust1" class="cluster">
<title>cluster1</title>
<polygon fill="transparent" stroke="#000000" points="8,-206 8,-370 142,-370 142,-206 8,-206"/>
</g>
<g id="clust2" class="cluster">
<title>cluster2</title>
<polygon fill="transparent" stroke="#000000" points="191,-452 191,-592 280,-592 280,-452 191,-452"/>
</g>
<g id="clust3" class="cluster">
<title>cluster3</title>
<polygon fill="transparent" stroke="#000000" points="191,-304 191,-444 280,-444 280,-304 191,-304"/>
</g>
<g id="clust4" class="cluster">
<title>cluster4</title>
<polygon fill="transparent" stroke="#000000" points="191,-156 191,-296 280,-296 280,-156 191,-156"/>
</g>
<g id="clust5" class="cluster">
<title>cluster5</title>
<polygon fill="transparent" stroke="#000000" points="191,-8 191,-148 280,-148 280,-8 191,-8"/>
</g>
<!-- Start -->
<g id="node1" class="node">
<title>Start</title>
<text text-anchor="middle" x="75" y="-340.3" font-family="Times,serif" font-size="14.00" fill="#000000">书店销售记录</text>
</g>
<!-- ISBN_A -->
<g id="node3" class="node">
<title>ISBN_A</title>
<text text-anchor="middle" x="235.5" y="-562.3" font-family="Times,serif" font-size="14.00" fill="#000000">ISBN: A</text>
</g>
<!-- Start&#45;&gt;ISBN_A -->
<g id="edge1" class="edge">
<title>Start&#45;&gt;ISBN_A</title>
<path fill="none" stroke="#000000" d="M82.1719,-362.078C97.524,-398.9925 136.6449,-484.1688 191,-539 191.9304,-539.9386 192.8998,-540.858 193.9006,-541.7575"/>
<polygon fill="#000000" stroke="#000000" points="192.0584,-544.7642 202.0644,-548.2468 196.4141,-539.2844 192.0584,-544.7642"/>
<text text-anchor="middle" x="166.5" y="-528.8" font-family="Times,serif" font-size="14.00" fill="#000000">计算</text>
</g>
<!-- ISBN_B -->
<g id="node5" class="node">
<title>ISBN_B</title>
<text text-anchor="middle" x="235.5" y="-414.3" font-family="Times,serif" font-size="14.00" fill="#000000">ISBN: B</text>
</g>
<!-- Start&#45;&gt;ISBN_B -->
<g id="edge2" class="edge">
<title>Start&#45;&gt;ISBN_B</title>
<path fill="none" stroke="#000000" d="M114.2627,-362.1024C138.2679,-373.1702 168.9615,-387.3218 193.4587,-398.6165"/>
<polygon fill="#000000" stroke="#000000" points="192.3097,-401.9408 202.8565,-402.9494 195.2407,-395.5839 192.3097,-401.9408"/>
<text text-anchor="middle" x="166.5" y="-394.8" font-family="Times,serif" font-size="14.00" fill="#000000">计算</text>
</g>
<!-- ISBN_ -->
<g id="node7" class="node">
<title>ISBN_</title>
<text text-anchor="middle" x="235.5" y="-266.3" font-family="Times,serif" font-size="14.00" fill="#000000">ISBN: ...</text>
</g>
<!-- Start&#45;&gt;ISBN_ -->
<g id="edge3" class="edge">
<title>Start&#45;&gt;ISBN_</title>
<path fill="none" stroke="#000000" d="M121.3456,-325.9053C128.3076,-323.0193 135.3716,-319.9953 142,-317 158.8846,-309.3699 177.1552,-300.36 193.0278,-292.2806"/>
<polygon fill="#000000" stroke="#000000" points="194.764,-295.3238 202.0676,-287.6486 191.5718,-289.094 194.764,-295.3238"/>
<text text-anchor="middle" x="166.5" y="-315.8" font-family="Times,serif" font-size="14.00" fill="#000000">计算</text>
</g>
<!-- ISBN_Z -->
<g id="node9" class="node">
<title>ISBN_Z</title>
<text text-anchor="middle" x="235.5" y="-118.3" font-family="Times,serif" font-size="14.00" fill="#000000">ISBN: Z</text>
</g>
<!-- Start&#45;&gt;ISBN_Z -->
<g id="edge4" class="edge">
<title>Start&#45;&gt;ISBN_Z</title>
<path fill="none" stroke="#000000" d="M125.6156,-329.7723C131.745,-326.3712 137.4388,-322.1741 142,-317 153.5485,-303.8996 147.2135,-295.7951 152,-279 168.1834,-222.2152 155.843,-199.4384 191,-152 192.3973,-150.1145 193.9505,-148.3097 195.6152,-146.5878"/>
<polygon fill="#000000" stroke="#000000" points="198.3489,-148.8403 203.492,-139.5775 193.6951,-143.6113 198.3489,-148.8403"/>
<text text-anchor="middle" x="166.5" y="-282.8" font-family="Times,serif" font-size="14.00" fill="#000000">计算</text>
</g>
<!-- struct1 -->
<g id="node2" class="node">
<title>struct1</title>
<polygon fill="none" stroke="#000000" points="16,-215 16,-307 134,-307 134,-215 16,-215"/>
<text text-anchor="middle" x="75" y="-291.8" font-family="Times,serif" font-size="14.00" fill="#000000">ISBN, 数量, 价格</text>
<polyline fill="none" stroke="#000000" points="16,-284 134,-284 "/>
<text text-anchor="middle" x="75" y="-268.8" font-family="Times,serif" font-size="14.00" fill="#000000">ISBN, 数量, 价格</text>
<polyline fill="none" stroke="#000000" points="16,-261 134,-261 "/>
<text text-anchor="middle" x="75" y="-245.8" font-family="Times,serif" font-size="14.00" fill="#000000">...</text>
<polyline fill="none" stroke="#000000" points="16,-238 134,-238 "/>
<text text-anchor="middle" x="75" y="-222.8" font-family="Times,serif" font-size="14.00" fill="#000000">ISBN, 数量, 价格</text>
</g>
<!-- struct2 -->
<g id="node4" class="node">
<title>struct2</title>
<polygon fill="none" stroke="#000000" points="199,-460.5 199,-529.5 272,-529.5 272,-460.5 199,-460.5"/>
<text text-anchor="middle" x="235.5" y="-514.3" font-family="Times,serif" font-size="14.00" fill="#000000">销售量</text>
<polyline fill="none" stroke="#000000" points="199,-506.5 272,-506.5 "/>
<text text-anchor="middle" x="235.5" y="-491.3" font-family="Times,serif" font-size="14.00" fill="#000000">销售额</text>
<polyline fill="none" stroke="#000000" points="199,-483.5 272,-483.5 "/>
<text text-anchor="middle" x="235.5" y="-468.3" font-family="Times,serif" font-size="14.00" fill="#000000">平均售价</text>
</g>
<!-- struct3 -->
<g id="node6" class="node">
<title>struct3</title>
<polygon fill="none" stroke="#000000" points="199,-312.5 199,-381.5 272,-381.5 272,-312.5 199,-312.5"/>
<text text-anchor="middle" x="235.5" y="-366.3" font-family="Times,serif" font-size="14.00" fill="#000000">销售量</text>
<polyline fill="none" stroke="#000000" points="199,-358.5 272,-358.5 "/>
<text text-anchor="middle" x="235.5" y="-343.3" font-family="Times,serif" font-size="14.00" fill="#000000">销售额</text>
<polyline fill="none" stroke="#000000" points="199,-335.5 272,-335.5 "/>
<text text-anchor="middle" x="235.5" y="-320.3" font-family="Times,serif" font-size="14.00" fill="#000000">平均售价</text>
</g>
<!-- struct4 -->
<g id="node8" class="node">
<title>struct4</title>
<polygon fill="none" stroke="#000000" points="199,-164.5 199,-233.5 272,-233.5 272,-164.5 199,-164.5"/>
<text text-anchor="middle" x="235.5" y="-218.3" font-family="Times,serif" font-size="14.00" fill="#000000">销售量</text>
<polyline fill="none" stroke="#000000" points="199,-210.5 272,-210.5 "/>
<text text-anchor="middle" x="235.5" y="-195.3" font-family="Times,serif" font-size="14.00" fill="#000000">销售额</text>
<polyline fill="none" stroke="#000000" points="199,-187.5 272,-187.5 "/>
<text text-anchor="middle" x="235.5" y="-172.3" font-family="Times,serif" font-size="14.00" fill="#000000">平均售价</text>
</g>
<!-- struct5 -->
<g id="node10" class="node">
<title>struct5</title>
<polygon fill="none" stroke="#000000" points="199,-16.5 199,-85.5 272,-85.5 272,-16.5 199,-16.5"/>
<text text-anchor="middle" x="235.5" y="-70.3" font-family="Times,serif" font-size="14.00" fill="#000000">销售量</text>
<polyline fill="none" stroke="#000000" points="199,-62.5 272,-62.5 "/>
<text text-anchor="middle" x="235.5" y="-47.3" font-family="Times,serif" font-size="14.00" fill="#000000">销售额</text>
<polyline fill="none" stroke="#000000" points="199,-39.5 272,-39.5 "/>
<text text-anchor="middle" x="235.5" y="-24.3" font-family="Times,serif" font-size="14.00" fill="#000000">平均售价</text>
</g>
</g>
</svg>
