<?xml version="1.0" encoding="UTF-8" standalone="no"?>
<!DOCTYPE svg PUBLIC "-//W3C//DTD SVG 1.1//EN"
 "http://www.w3.org/Graphics/SVG/1.1/DTD/svg11.dtd">
<!-- Generated by graphviz version 2.40.1 (20161225.0304)
 -->
<!-- Title: major_cpp_compilers Pages: 1 -->
<svg width="240pt" height="238pt"
 viewBox="0.00 0.00 239.79 238.00" xmlns="http://www.w3.org/2000/svg" xmlns:xlink="http://www.w3.org/1999/xlink">
<g id="graph0" class="graph" transform="scale(1 1) rotate(0) translate(4 234)">
<title>major_cpp_compilers</title>
<g id="clust1" class="cluster">
<title>cluster1</title>
<polygon fill="transparent" stroke="#000000" points="8,-8 8,-222 96.7935,-222 96.7935,-8 8,-8"/>
</g>
<g id="clust2" class="cluster">
<title>cluster2</title>
<polygon fill="transparent" stroke="#000000" points="116.7935,-8 116.7935,-222 223.7855,-222 223.7855,-8 116.7935,-8"/>
</g>
<!-- Compilers -->
<g id="node1" class="node">
<title>Compilers</title>
<text text-anchor="middle" x="52.3968" y="-192.3" font-family="Times,serif" font-size="14.00" fill="#000000">编译器</text>
</g>
<!-- MSVC -->
<g id="node2" class="node">
<title>MSVC</title>
<ellipse fill="none" stroke="#000000" cx="52.3968" cy="-142" rx="36.2938" ry="18"/>
<text text-anchor="middle" x="52.3968" y="-138.3" font-family="Times,serif" font-size="14.00" fill="#000000">MSVC</text>
</g>
<!-- Windows -->
<g id="node6" class="node">
<title>Windows</title>
<ellipse fill="none" stroke="#000000" cx="170.2895" cy="-142" rx="45.4919" ry="18"/>
<text text-anchor="middle" x="170.2895" y="-138.3" font-family="Times,serif" font-size="14.00" fill="#000000">Windows</text>
</g>
<!-- MSVC&#45;&gt;Windows -->
<g id="edge1" class="edge">
<title>MSVC&#45;&gt;Windows</title>
<path fill="none" stroke="#000000" d="M89.0525,-142C97.1172,-142 105.8348,-142 114.4629,-142"/>
<polygon fill="#000000" stroke="#000000" points="114.5061,-145.5001 124.5061,-142 114.506,-138.5001 114.5061,-145.5001"/>
</g>
<!-- Clang -->
<g id="node3" class="node">
<title>Clang</title>
<ellipse fill="none" stroke="#000000" cx="52.3968" cy="-88" rx="32.4942" ry="18"/>
<text text-anchor="middle" x="52.3968" y="-84.3" font-family="Times,serif" font-size="14.00" fill="#000000">Clang</text>
</g>
<!-- Clang&#45;&gt;Windows -->
<g id="edge4" class="edge">
<title>Clang&#45;&gt;Windows</title>
<path fill="none" stroke="#000000" stroke-dasharray="5,2" d="M77.6877,-99.5844C93.2152,-106.6966 113.4282,-115.955 131.0064,-124.0066"/>
<polygon fill="#000000" stroke="#000000" points="129.9053,-127.3519 140.4545,-128.3343 132.8204,-120.9878 129.9053,-127.3519"/>
</g>
<!-- macOS -->
<g id="node7" class="node">
<title>macOS</title>
<ellipse fill="none" stroke="#000000" cx="170.2895" cy="-88" rx="37.8943" ry="18"/>
<text text-anchor="middle" x="170.2895" y="-84.3" font-family="Times,serif" font-size="14.00" fill="#000000">macOS</text>
</g>
<!-- Clang&#45;&gt;macOS -->
<g id="edge2" class="edge">
<title>Clang&#45;&gt;macOS</title>
<path fill="none" stroke="#000000" d="M84.9236,-88C96.4248,-88 109.6179,-88 122.1382,-88"/>
<polygon fill="#000000" stroke="#000000" points="122.4452,-91.5001 132.4452,-88 122.4452,-84.5001 122.4452,-91.5001"/>
</g>
<!-- Linux -->
<g id="node8" class="node">
<title>Linux</title>
<ellipse fill="none" stroke="#000000" cx="170.2895" cy="-34" rx="32.4942" ry="18"/>
<text text-anchor="middle" x="170.2895" y="-30.3" font-family="Times,serif" font-size="14.00" fill="#000000">Linux</text>
</g>
<!-- Clang&#45;&gt;Linux -->
<g id="edge5" class="edge">
<title>Clang&#45;&gt;Linux</title>
<path fill="none" stroke="#000000" stroke-dasharray="5,2" d="M77.6877,-76.4156C94.6265,-68.657 117.1412,-58.3442 135.7287,-49.8304"/>
<polygon fill="#000000" stroke="#000000" points="137.4063,-52.9117 145.0404,-45.5652 134.4912,-46.5475 137.4063,-52.9117"/>
</g>
<!-- GCC -->
<g id="node4" class="node">
<title>GCC</title>
<ellipse fill="none" stroke="#000000" cx="52.3968" cy="-34" rx="29.4969" ry="18"/>
<text text-anchor="middle" x="52.3968" y="-30.3" font-family="Times,serif" font-size="14.00" fill="#000000">GCC</text>
</g>
<!-- GCC&#45;&gt;Windows -->
<g id="edge6" class="edge">
<title>GCC&#45;&gt;Windows</title>
<path fill="none" stroke="#000000" stroke-dasharray="5,2" d="M76.2895,-44.6269C83.6632,-48.851 91.2839,-54.3183 96.7935,-61 113.0758,-80.7459 99.7444,-95.9123 116.7935,-115 120.0031,-118.5934 123.8022,-121.7702 127.8725,-124.5637"/>
<polygon fill="#000000" stroke="#000000" points="126.1353,-127.6032 136.5062,-129.7698 129.75,-121.6087 126.1353,-127.6032"/>
</g>
<!-- GCC&#45;&gt;macOS -->
<g id="edge7" class="edge">
<title>GCC&#45;&gt;macOS</title>
<path fill="none" stroke="#000000" stroke-dasharray="5,2" d="M75.9708,-44.7979C92.5261,-52.381 114.9884,-62.6697 133.8395,-71.3043"/>
<polygon fill="#000000" stroke="#000000" points="132.4897,-74.5357 143.0389,-75.518 135.4048,-68.1715 132.4897,-74.5357"/>
</g>
<!-- GCC&#45;&gt;Linux -->
<g id="edge3" class="edge">
<title>GCC&#45;&gt;Linux</title>
<path fill="none" stroke="#000000" d="M81.842,-34C95.5845,-34 112.2094,-34 127.3194,-34"/>
<polygon fill="#000000" stroke="#000000" points="127.4841,-37.5001 137.4841,-34 127.484,-30.5001 127.4841,-37.5001"/>
</g>
<!-- Platforms -->
<g id="node5" class="node">
<title>Platforms</title>
<text text-anchor="middle" x="170.2895" y="-192.3" font-family="Times,serif" font-size="14.00" fill="#000000">操作系统</text>
</g>
</g>
</svg>
